<?xml version="1.0" standalone="no"?>
<!DOCTYPE svg PUBLIC "-//W3C//DTD SVG 20010904//EN"
 "http://www.w3.org/TR/2001/REC-SVG-20010904/DTD/svg10.dtd">
<svg version="1.0" xmlns="http://www.w3.org/2000/svg"
 width="700.000000pt" height="700.000000pt" viewBox="0 0 700.000000 700.000000"
 preserveAspectRatio="xMidYMid meet">
<metadata>
Created by potrace 1.14, written by Peter Selinger 2001-2017
</metadata>
<g transform="translate(0.000000,700.000000) scale(0.100000,-0.100000)"
fill="#000000" stroke="none">
<path d="M5975 6761 c-26 -12 -125 -104 -275 -255 -129 -130 -236 -240 -238
-244 -1 -4 194 -203 433 -442 l435 -435 238 244 c130 133 246 259 256 278 26
48 25 128 -2 184 -15 30 -119 142 -334 355 -263 260 -320 312 -354 322 -59 17
-113 14 -159 -7z"/>
<path d="M965 6550 c-60 -12 -167 -54 -216 -86 -62 -39 -163 -138 -205 -201
-20 -30 -50 -91 -67 -136 l-32 -82 0 -2545 0 -2545 32 -82 c73 -189 207 -323
396 -396 l82 -32 2545 0 2545 0 82 32 c191 73 323 205 396 396 l32 82 3 1406
2 1406 -28 54 c-76 145 -278 155 -370 17 l-27 -42 -5 -1376 -5 -1376 -26 -49
c-31 -62 -86 -102 -158 -115 -74 -14 -4808 -14 -4882 0 -72 13 -127 53 -158
115 l-26 49 0 2456 0 2456 26 49 c15 30 42 62 68 80 l43 30 1486 5 1487 5 48
24 c159 78 162 307 4 386 l-51 25 -1490 -1 c-820 -1 -1509 -5 -1531 -9z"/>
<path d="M3640 4445 c-827 -827 -1511 -1517 -1519 -1532 -24 -47 -371 -1096
-371 -1123 0 -26 22 -66 50 -87 35 -28 98 -12 630 165 295 99 547 185 560 192
30 15 3020 3000 3020 3015 0 6 -195 205 -433 443 l-432 432 -1505 -1505z"/>
</g>
</svg>
